<svg xmlns="http://www.w3.org/2000/svg" viewBox="0 0 512 512" width="512" height="512">
  <defs>
    <linearGradient id="bg" x1="0%" y1="0%" x2="100%" y2="100%">
      <stop offset="0%" style="stop-color:#667eea;stop-opacity:1" />
      <stop offset="100%" style="stop-color:#764ba2;stop-opacity:1" />
    </linearGradient>
  </defs>
  
  <!-- Background -->
  <rect width="512" height="512" rx="60" fill="url(#bg)"/>
  
  <!-- Map Pin -->
  <g transform="translate(256, 200)">
    <path d="M0,0 C-40,0 -72,32 -72,72 C-72,120 0,180 0,180 S72,120 72,72 C72,32 40,0 0,0 Z" 
          fill="white" opacity="0.95"/>
    <circle cx="0" cy="72" r="24" fill="#667eea"/>
  </g>
  
  <!-- Airplane -->
  <g transform="translate(160, 320) rotate(-45)">
    <path d="M20,0 L40,10 L40,15 L20,10 L20,30 L25,35 L25,40 L15,38 L5,40 L5,35 L10,30 L10,10 L-10,15 L-10,10 L10,0 Z" 
          fill="white" opacity="0.9"/>
  </g>
  
  <!-- Europe Text -->
  <text x="256" y="420" font-family="Arial, sans-serif" font-size="48" font-weight="bold" 
        text-anchor="middle" fill="white">EUROPA</text>
  <text x="256" y="460" font-family="Arial, sans-serif" font-size="32" 
        text-anchor="middle" fill="white" opacity="0.9">2025</text>
</svg>